<svg id="Layer_1" data-name="Layer 1" xmlns="http://www.w3.org/2000/svg" viewBox="0 0 460.01 73"><defs><style>.cls-1{fill:#4d4d4d;}.cls-2{fill:#24ce68;}</style></defs><title>awesome-startup</title><path class="cls-1" d="M80.25,23.21c3.37,0,6,.86,7.77,2.6s2.71,4.27,2.71,7.56V52.46A2.29,2.29,0,0,1,90,54.18a2.35,2.35,0,0,1-1.76.74H79.9a10.93,10.93,0,0,1-7.67-3,9.36,9.36,0,0,1-3.16-7.1V43.6a9.41,9.41,0,0,1,3.16-7.14,11,11,0,0,1,7.67-2.92,11.11,11.11,0,0,1,5.87,1.62V33.37c0-1.93-.41-3.27-1.23-4s-2.25-1.19-4.29-1.19a8.44,8.44,0,0,0-4.19,1.12A6.93,6.93,0,0,0,74.9,30l-.31.25-.07.07,0,0a2.29,2.29,0,0,1-1.72.74,2.45,2.45,0,0,1-1.76-.7,2.43,2.43,0,0,1-.74-1.76A2.46,2.46,0,0,1,71,26.86l0,0,0,0,.14-.14c.16-.14.34-.28.53-.42A11.93,11.93,0,0,1,73.57,25,13.55,13.55,0,0,1,80.25,23.21ZM74,44.86a4.63,4.63,0,0,0,1.72,3.62A6.14,6.14,0,0,0,79.9,50h5.87V43.6A4.7,4.7,0,0,0,84.05,40a6.46,6.46,0,0,0-8.3,0A4.67,4.67,0,0,0,74,43.6Z" transform="translate(-0.03)"/><path class="cls-1" d="M125.21,26.23a2.35,2.35,0,0,1,.74-1.76,2.29,2.29,0,0,1,1.72-.74,2.53,2.53,0,0,1,2.5,2.5V45.49a9.31,9.31,0,0,1-2.88,6.89,9.42,9.42,0,0,1-6.93,2.89A9.31,9.31,0,0,1,113.08,52,9.78,9.78,0,0,1,96,45.49V26.23a2.53,2.53,0,0,1,2.46-2.5,2.53,2.53,0,0,1,2.5,2.5V45.49a4.82,4.82,0,1,0,9.63,0V26.23a2.58,2.58,0,0,1,2.49-2.5,2.53,2.53,0,0,1,2.5,2.5V45.49A4.51,4.51,0,0,0,117,48.9a4.72,4.72,0,0,0,3.41,1.41,4.63,4.63,0,0,0,3.41-1.41,4.57,4.57,0,0,0,1.44-3.41Z" transform="translate(-0.03)"/><path class="cls-1" d="M146.8,55.23a11.4,11.4,0,0,1-11.36-11.39V34.67a11.39,11.39,0,0,1,22.78,0v2.6c0,1.94-1,2.92-3,2.92H140.4v3.65a6.29,6.29,0,0,0,1.86,4.57,6.41,6.41,0,0,0,4.57,1.8h.32a5.67,5.67,0,0,0,3.94-1.55,6.22,6.22,0,0,0,2.11-4.08,2.32,2.32,0,0,1,.91-1.34,2.34,2.34,0,0,1,1.79-.52,2.43,2.43,0,0,1,1.69.91,1.87,1.87,0,0,1,.53,1.44,11.35,11.35,0,0,1-11.32,10.2Zm6.47-20v-.56a6.25,6.25,0,0,0-1.9-4.57,6.09,6.09,0,0,0-4.54-1.9,6.22,6.22,0,0,0-4.57,1.9,6.29,6.29,0,0,0-1.86,4.57v.56Z" transform="translate(-0.03)"/><path class="cls-1" d="M185.75,31.36a2.19,2.19,0,0,1-.31,1.83,2.43,2.43,0,0,1-1.52,1.09A2.54,2.54,0,0,1,182,34a2.35,2.35,0,0,1-1.09-1.51q-1-4.29-6.3-4.29a9.36,9.36,0,0,0-2.88.42,4.49,4.49,0,0,0-2.29,1.52,3.13,3.13,0,0,0-.59,2.14,3.29,3.29,0,0,0,1,2q1.26,1.3,5.62,2.64l1,.31,1.06.35c.79.29,1.5.57,2.1.85a11,11,0,0,1,3.77,2.7,8.19,8.19,0,0,1,2.07,5.24,7.17,7.17,0,0,1-1.72,5.14,10.42,10.42,0,0,1-4.36,2.88,14.11,14.11,0,0,1-4.75.81h-.49c-.37,0-.75-.06-1.12-.11a14.22,14.22,0,0,1-3.38-.88,9.18,9.18,0,0,1-6.08-6.57,2.38,2.38,0,0,1,.28-1.86,2.48,2.48,0,0,1,1.55-1.09,2.35,2.35,0,0,1,1.86.28,2.32,2.32,0,0,1,1.12,1.51,4.75,4.75,0,0,0,3.41,3.34,8.23,8.23,0,0,0,1.94.42,2.7,2.7,0,0,0,.63.07.52.52,0,0,1,.21,0h.07q3.63,0,5.31-2a2.4,2.4,0,0,0,.56-1.93,3.68,3.68,0,0,0-.84-2.11q-1.23-1.38-5.7-2.74l-1-.28-1-.36a21.68,21.68,0,0,1-2-.77,11.46,11.46,0,0,1-3.69-2.5,8.09,8.09,0,0,1-.84-10.3q2.81-4.08,9.24-4.07c3.64,0,6.46,1,8.48,3.12A10.35,10.35,0,0,1,185,29.08,9.43,9.43,0,0,1,185.75,31.36Z" transform="translate(-0.03)"/><path class="cls-1" d="M202.66,23.31A11.4,11.4,0,0,1,214.05,34.7v9.18a11.39,11.39,0,0,1-22.78,0V34.7a11.4,11.4,0,0,1,11.39-11.39ZM209.1,34.7a6.26,6.26,0,0,0-1.9-4.57,6.15,6.15,0,0,0-4.54-1.9,6.42,6.42,0,0,0-6.43,6.47v9.18a6.35,6.35,0,0,0,6.43,6.43,6.19,6.19,0,0,0,4.54-1.86,6.26,6.26,0,0,0,1.9-4.57Z" transform="translate(-0.03)"/><path class="cls-1" d="M224.28,52.46a2.26,2.26,0,0,1-.74,1.72,2.42,2.42,0,0,1-3.48,0,2.28,2.28,0,0,1-.73-1.72V33.22a9.76,9.76,0,0,1,17.08-6.46,9.3,9.3,0,0,1,7.28-3.31,9.48,9.48,0,0,1,6.93,2.88,9.34,9.34,0,0,1,2.88,6.89V52.46a2.29,2.29,0,0,1-.74,1.72,2.33,2.33,0,0,1-1.76.74,2.53,2.53,0,0,1-2.46-2.46V33.22a4.85,4.85,0,0,0-4.85-4.81,4.8,4.8,0,0,0-4.82,4.81V52.46a2.26,2.26,0,0,1-.74,1.72,2.42,2.42,0,0,1-3.48,0,2.28,2.28,0,0,1-.73-1.72V33.22a4.73,4.73,0,0,0-1.41-3.41,4.85,4.85,0,0,0-6.82,0,4.73,4.73,0,0,0-1.41,3.41Z" transform="translate(-0.03)"/><path class="cls-1" d="M270.13,55.23a11.4,11.4,0,0,1-11.36-11.39V34.67a11.39,11.39,0,0,1,22.78,0v2.6c0,1.94-1,2.92-3,2.92h-14.8v3.65a6.29,6.29,0,0,0,1.86,4.57,6.41,6.41,0,0,0,4.57,1.8h.32a5.67,5.67,0,0,0,3.94-1.55,6.26,6.26,0,0,0,2.11-4.08,2.32,2.32,0,0,1,.91-1.34,2.34,2.34,0,0,1,1.79-.52,2.45,2.45,0,0,1,1.69.91,1.87,1.87,0,0,1,.53,1.44,11.35,11.35,0,0,1-11.32,10.2Zm6.47-20v-.56a6.25,6.25,0,0,0-1.9-4.57,6.11,6.11,0,0,0-4.54-1.9,6.22,6.22,0,0,0-4.57,1.9,6.29,6.29,0,0,0-1.86,4.57v.56Z" transform="translate(-0.03)"/><path class="cls-2" d="M319,31.36a2.2,2.2,0,0,1-.32,1.83,2.38,2.38,0,0,1-1.51,1.09,2.58,2.58,0,0,1-1.9-.32,2.42,2.42,0,0,1-1.09-1.51q-1-4.29-6.29-4.29a9.27,9.27,0,0,0-2.88.42,4.45,4.45,0,0,0-2.29,1.52,3.08,3.08,0,0,0-.6,2.14,3.34,3.34,0,0,0,.95,2c.85.87,2.72,1.75,5.63,2.64l1,.31,1.05.35c.8.29,1.5.57,2.11.85a11,11,0,0,1,3.76,2.7,8.14,8.14,0,0,1,2.08,5.24A7.22,7.22,0,0,1,317,51.51a10.48,10.48,0,0,1-4.36,2.88,14.15,14.15,0,0,1-4.75.81h-.49c-.38,0-.75-.06-1.13-.11a14.14,14.14,0,0,1-3.37-.88,9.18,9.18,0,0,1-6.08-6.57,2.34,2.34,0,0,1,.28-1.86,2.48,2.48,0,0,1,1.54-1.09,2.47,2.47,0,0,1,3,1.79A4.73,4.73,0,0,0,305,49.82a8.12,8.12,0,0,0,1.94.42,2.7,2.7,0,0,0,.63.07.52.52,0,0,1,.21,0h.07q3.61,0,5.31-2a2.44,2.44,0,0,0,.56-1.93,3.68,3.68,0,0,0-.84-2.11q-1.23-1.38-5.7-2.74l-1-.28-1-.36a19.75,19.75,0,0,1-2-.77,11.35,11.35,0,0,1-3.69-2.5,8.08,8.08,0,0,1-.85-10.3q2.82-4.08,9.25-4.07c3.63,0,6.46,1,8.47,3.12a10.64,10.64,0,0,1,1.87,2.68A9.88,9.88,0,0,1,319,31.36Z" transform="translate(-0.03)"/><path class="cls-2" d="M331.19,28.76v19.3a2.26,2.26,0,0,0,.07.53,2.08,2.08,0,0,0,.32.63,2.45,2.45,0,0,0,2,.74,2.41,2.41,0,0,1,1.76.74,2.37,2.37,0,0,1,.7,1.76,2.33,2.33,0,0,1-.7,1.72,2.41,2.41,0,0,1-1.76.74A6.93,6.93,0,0,1,328,52.53a6.58,6.58,0,0,1-1.72-4.43V28.76h-1.76a2.28,2.28,0,0,1-1.72-.74,2.45,2.45,0,0,1,0-3.51,2.32,2.32,0,0,1,1.72-.71h1.76V15.12a2.44,2.44,0,0,1,2.49-2.46,2.35,2.35,0,0,1,1.73.7,2.4,2.4,0,0,1,.73,1.76V23.8H333a2.32,2.32,0,0,1,1.72.71,2.45,2.45,0,0,1,0,3.51,2.28,2.28,0,0,1-1.72.74Z" transform="translate(-0.03)"/><path class="cls-2" d="M350.74,23.21c3.38,0,6,.86,7.77,2.6s2.71,4.27,2.71,7.56V52.46a2.29,2.29,0,0,1-.74,1.72,2.35,2.35,0,0,1-1.76.74h-8.33a10.93,10.93,0,0,1-7.67-3,9.39,9.39,0,0,1-3.16-7.1V43.6a9.44,9.44,0,0,1,3.16-7.14,11,11,0,0,1,7.67-2.92,11.11,11.11,0,0,1,5.87,1.62V33.37c0-1.93-.41-3.27-1.23-4s-2.25-1.19-4.29-1.19a8.4,8.4,0,0,0-4.18,1.12,6.2,6.2,0,0,0-1.16.74l-.32.25-.07.07,0,0a2.28,2.28,0,0,1-1.72.74,2.47,2.47,0,0,1-1.76-.7,2.42,2.42,0,0,1-.73-1.76,2.45,2.45,0,0,1,.7-1.76l0,0,0,0,.14-.14c.16-.14.34-.28.53-.42A11.93,11.93,0,0,1,344.06,25,13.58,13.58,0,0,1,350.74,23.21Zm-6.22,21.65a4.63,4.63,0,0,0,1.72,3.62A6.14,6.14,0,0,0,350.39,50h5.87V43.6A4.67,4.67,0,0,0,354.54,40a6.46,6.46,0,0,0-8.3,0,4.67,4.67,0,0,0-1.72,3.63Z" transform="translate(-0.03)"/><path class="cls-2" d="M371.45,52.38a2.41,2.41,0,0,1-.74,1.76,2.35,2.35,0,0,1-1.76.74,2.29,2.29,0,0,1-1.72-.74,2.41,2.41,0,0,1-.74-1.76V34.74a11.4,11.4,0,0,1,11.39-11.39,11.23,11.23,0,0,1,6,1.68A11.45,11.45,0,0,1,388,29.6a2.35,2.35,0,0,1,.14,1.87A2.38,2.38,0,0,1,387,32.91a2.26,2.26,0,0,1-1.9.14,2.38,2.38,0,0,1-1.44-1.23,6.2,6.2,0,0,0-2.35-2.57,6.39,6.39,0,0,0-3.38-.95,6.37,6.37,0,0,0-6.43,6.44Z" transform="translate(-0.03)"/><path class="cls-2" d="M399.08,28.76v19.3a1.83,1.83,0,0,0,.07.53,2.08,2.08,0,0,0,.32.63,2.43,2.43,0,0,0,2,.74,2.41,2.41,0,0,1,1.76.74,2.37,2.37,0,0,1,.7,1.76,2.33,2.33,0,0,1-.7,1.72,2.41,2.41,0,0,1-1.76.74,6.93,6.93,0,0,1-5.62-2.39,6.64,6.64,0,0,1-1.73-4.43V28.76h-1.75a2.31,2.31,0,0,1-1.73-.74,2.45,2.45,0,0,1,0-3.51,2.36,2.36,0,0,1,1.73-.71h1.75V15.12a2.46,2.46,0,0,1,2.5-2.46,2.33,2.33,0,0,1,1.72.7,2.41,2.41,0,0,1,.74,1.76V23.8h1.76a2.34,2.34,0,0,1,1.72.71,2.45,2.45,0,0,1,0,3.51,2.29,2.29,0,0,1-1.72.74Z" transform="translate(-0.03)"/><path class="cls-2" d="M427,26.23a2.35,2.35,0,0,1,.74-1.76,2.29,2.29,0,0,1,1.72-.74,2.53,2.53,0,0,1,2.5,2.5V43.88a11.39,11.39,0,1,1-22.78,0V26.23a2.34,2.34,0,0,1,.73-1.76,2.48,2.48,0,0,1,4.22,1.76V43.88a6.37,6.37,0,0,0,6.44,6.43A6.42,6.42,0,0,0,427,43.88Z" transform="translate(-0.03)"/><path class="cls-2" d="M442.22,70.28a2.53,2.53,0,0,1-2.46,2.46A2.33,2.33,0,0,1,438,72a2.29,2.29,0,0,1-.74-1.72V34.74a11.39,11.39,0,0,1,22.78,0v9.17A11.4,11.4,0,0,1,448.65,55.3a11.14,11.14,0,0,1-6.43-2Zm12.86-35.54a6.37,6.37,0,0,0-6.43-6.44,6.14,6.14,0,0,0-4.53,1.87,6.21,6.21,0,0,0-1.9,4.57v9.17a6.21,6.21,0,0,0,1.9,4.57,6.14,6.14,0,0,0,4.53,1.87,6.37,6.37,0,0,0,6.43-6.44Z" transform="translate(-0.03)"/><path class="cls-2" d="M68.93,2a2.61,2.61,0,0,0-2.54-2h0C52.65.09,19.25,2.39,5.77,21.85c-7,10.11-7.6,23.24-1.79,39a2.49,2.49,0,0,0,.2.32,64.61,64.61,0,0,0-2.91,8.67,2.61,2.61,0,0,0,2,3.09,2.48,2.48,0,0,0,.54.06,2.61,2.61,0,0,0,2.55-2.06c.06-.27,6.7-27,30.18-42.7a2.61,2.61,0,1,0-2.89-4.34C20.34,32.78,12.14,44.78,7.32,54.29,3.87,42.36,4.77,32.45,10.06,24.82c10.41-15,35.1-18.65,50-19.42-3.21,4.69-6.71,13.3-6.71,28.49,0,8.14-2.31,14.4-6.86,18.62-7.29,6.75-19.13,7.39-27.79,6.73a2.61,2.61,0,0,0-.4,5.2c1.74.14,3.59.22,5.51.22,8.82,0,19.11-1.73,26.23-8.33,5.65-5.24,8.52-12.79,8.52-22.43,0-23.73,8.94-28.93,9-29A2.61,2.61,0,0,0,68.93,2Z" transform="translate(-0.03)"/></svg>